<?xml version="1.0" standalone="no"?>
<!DOCTYPE svg PUBLIC "-//W3C//DTD SVG 20010904//EN"
 "http://www.w3.org/TR/2001/REC-SVG-20010904/DTD/svg10.dtd">
<svg version="1.0" xmlns="http://www.w3.org/2000/svg"
 width="297.000000pt" height="297.000000pt" viewBox="0 0 297.000000 297.000000"
 preserveAspectRatio="xMidYMid meet">
<metadata>
Created by potrace 1.11, written by Peter Selinger 2001-2013
</metadata>
<g transform="translate(0.000000,297.000000) scale(0.100000,-0.100000)"
fill="#000000" stroke="none">
<path d="M15 2716 c7 -22 43 -126 80 -231 37 -104 79 -225 93 -267 20 -59 31
-77 46 -80 12 -2 123 -3 248 -3 126 1 228 -1 228 -3 0 -2 -7 -27 -15 -55 -14
-51 -154 -556 -240 -867 -139 -501 -165 -603 -167 -657 -5 -159 70 -266 217
-309 55 -16 139 -17 1070 -16 556 0 1016 1 1022 1 13 1 10 10 -18 76 -5 11
-33 80 -63 153 -53 128 -55 133 -42 170 8 21 57 195 110 388 54 192 106 378
116 414 21 73 139 497 145 520 2 8 27 98 55 200 67 240 74 290 55 375 -6 28
-19 64 -28 81 -23 44 -96 105 -153 129 -48 20 -74 20 -1411 21 l-1361 2 13
-42z m2115 -593 c0 -7 -27 -110 -61 -229 -33 -119 -62 -223 -64 -233 -11 -53
-109 -387 -115 -395 -4 -4 -116 -8 -248 -8 l-240 0 65 -187 c36 -102 67 -194
70 -203 6 -20 24 -19 -242 -20 -98 0 -171 4 -173 10 -1 5 14 67 33 138 20 71
42 152 50 179 7 28 36 132 64 233 132 471 154 552 173 627 12 44 25 85 29 91
5 7 117 10 334 10 262 0 325 -2 325 -13z"/>
</g>
</svg>
